# xmcd
#
# Track frame offsets:
#	150
#	10177
#	29345
#	50485
#	69222
#	92537
#	111847
#	131167
#	154615
#	173140
#	196347
#	248405
#	263932
#	286315
#
# Disc length: 4055 seconds
#
# Revision: 0
# Processed by: cddbd v1.4PL0 Copyright (c) Steve Scherf et al.
# Submitted via: EasyCDDAExtractor 5.0.4.1
#
DISCID=b50fd50e
DTITLE=Tim Casey And The Bluescats - Live In Seattle
DYEAR=1998
DGENRE=Blues
TTITLE0=Cruzin'
TTITLE1=Shake It
TTITLE2=She Knocks Me Out
TTITLE3=Hoy,Hoy,Hoy
TTITLE4=Further Down The Road
TTITLE5=Killin'Floor
TTITLE6=Guess I Showed Her
TTITLE7=Don't Lie To Me
TTITLE8=Boogie Party
TTITLE9=Lordy Miss Sherry
TTITLE10=Early In The Morning
TTITLE11=Late At Night
TTITLE12=Honey Hush
TTITLE13=Lowdown Dirty Shame
EXTD=
EXTT0=
EXTT1=
EXTT2=
EXTT3=
EXTT4=
EXTT5=
EXTT6=
EXTT7=
EXTT8=
EXTT9=
EXTT10=
EXTT11=
EXTT12=
EXTT13=
PLAYORDER=
